<?xml version="1.0" encoding="UTF-8" standalone="no"?>
<svg
   xmlns:dc="http://purl.org/dc/elements/1.1/"
   xmlns:cc="http://creativecommons.org/ns#"
   xmlns:rdf="http://www.w3.org/1999/02/22-rdf-syntax-ns#"
   xmlns:svg="http://www.w3.org/2000/svg"
   xmlns="http://www.w3.org/2000/svg"
   xmlns:sodipodi="http://sodipodi.sourceforge.net/DTD/sodipodi-0.dtd"
   xmlns:inkscape="http://www.inkscape.org/namespaces/inkscape"
   version="1.1"
   x="0px"
   y="0px"
   width="100px"
   height="100px"
   viewBox="0 0 100 100"
   enable-background="new 0 0 100 100"
   xml:space="preserve"
   id="svg2"
   inkscape:version="0.48.4 r9939"
   sodipodi:docname="bang.svg"><metadata
     id="metadata30"><rdf:RDF><cc:Work
         rdf:about=""><dc:format>image/svg+xml</dc:format><dc:type
           rdf:resource="http://purl.org/dc/dcmitype/StillImage" /><dc:title></dc:title></cc:Work></rdf:RDF></metadata><defs
     id="defs28" /><sodipodi:namedview
     pagecolor="#ffffff"
     bordercolor="#666666"
     borderopacity="1"
     objecttolerance="10"
     gridtolerance="10"
     guidetolerance="10"
     inkscape:pageopacity="0"
     inkscape:pageshadow="2"
     inkscape:window-width="1366"
     inkscape:window-height="744"
     id="namedview26"
     showgrid="false"
     inkscape:zoom="4.7283099"
     inkscape:cx="39.624531"
     inkscape:cy="57.064029"
     inkscape:window-x="0"
     inkscape:window-y="24"
     inkscape:window-maximized="1"
     inkscape:current-layer="layer1" /><g
     id="Layer_1"><g
       id="圖層_3"
       display="none"><path
         display="inline"
         d="M-62.5,84c-0.556-5.979,2.16-11.521,4-17c3.581-10.666,6.762-23.565,12-34c1.278-2.546,3.577-4.508,5-7    c0.84-1.471,1.061-2.468,2-4c1.722-2.808,3.805-6.996,6-11c8.765-15.982,18.765-34.918,28-52c1.296,7.33-1.659,14.655-3,22    c-0.479,2.622-0.253,5.936-1,8c-0.61,1.686-2.999,3.204-4,5c-1.21,2.171-1.996,4.201-3,6c-7.699,13.79-15.151,28.185-23,42    C-47.507,56.094-55.81,69.628-62.5,84z"
         id="path6" /><path
         display="inline"
         d="M78.5,11c-1.081-8.396,0.566-26.98,0-45c4.596,0.227,8.719,3.378,13,5c4.38,1.659,8.482,3.127,13,5    c5.723,2.373,11.084,4.547,17,7c5.663,2.348,11.216,4.534,17,7c2.355,1.005,6.346,0.884,7,4C122.59-0.909,101.303,5.801,78.5,11z"
         id="path8" /><path
         display="inline"
         d="M-34.5,107c-11.507-3.493-21.206-8.794-32-13c4.856-11.622,11.994-22.128,18-33    c2.946-5.334,5.704-10.453,9-16c0.699-1.176,0.182-1.146,1-2c2.374-2.478,5.49-10.645,8-15c1.133-1.965,2.817-3.941,4-6    c5.734-9.979,10.596-22.188,18-32c6.029,2.074,11.483,5.271,17,8c5.586,2.762,11.534,4.959,16,9c-0.024,3.451-3.113,5.824-5,9    c-1.205,2.027-1.738,4.891-3,7c-0.24,0.402-1.846,0.656-2,1c-1.006,2.232-2.216,5.246-4,8C-4.616,55.33-18.701,83.049-34.5,107z"
         id="path10" /><path
         display="inline"
         d="M46.5,21c-0.688,30.886,0.874,62.633,1,95c0.17,4.217-1.536-0.018-3,0c-8.516-8.471-17.361-16.657-26-25    c-4.431-4.279-9.439-7.83-14-12c-4.256-3.893-8.738-8.107-12-13c9.989-20.344,22.968-37.699,33-58    C32.75,12.084,39.634,16.533,46.5,21z"
         id="path12" /><path
         display="inline"
         d="M25.5-32c-2.579-3.777-11.173-4.515-13.734-8.571c-0.482,0.145-0.99,0.14-1.494-0.155    c-0.135-0.079-0.26-0.183-0.38-0.296C9.777-40.999,9.649-40.988,9.5-41c-4.238-1.941-10.35-7.409-13-5    c1.547,10.555-3.558,23.104-5,34C2.834-6.334,14.166-0.666,25.5,5C26.212-10.699,24.083-22.509,25.5-32z"
         id="path14" /><path
         display="inline"
         d="M26.5,6c0-10.333,0-20.667,0-31c18.017-1.983,32.634-7.366,51-9c-0.718,12.137-1.253,28.164-1,46    c-10.312,1.688-18.618,5.382-29,7c8.545,0.956,16.741-2.854,25-5c16.076-4.177,33.132-8.564,51-13c8.382-2.08,16.268-5.377,25-6    c-2.829,30.485-5.189,59.077-7,88c-19.784,6.648-39.236,15.312-59,23c-1.805,0.701-4.199,1.293-6,2    c-5.201,2.041-10.875,4.646-17,7c-3.539,1.359-6.921,3.939-11,3c0.646-25.757-0.569-50.206-1-72c-0.155-7.857,1.126-16.479,0-24    c-0.25-1.667-0.521-2.623-2-3C39.801,14.032,31.678,11.489,26.5,6z"
         id="path16" /></g><g
       id="Captions" /></g><g
     inkscape:groupmode="layer"
     id="layer1"
     inkscape:label="Layer"><path
       style="fill:#ff0000"
       clip-path="none"
       d="m 29.706452,69.437488 2.237,18.839 11.88,-13.806 7.466,5.076 2.36,-5.007 14.295,7.602 -0.296,-7.748 22.456222,3.149286 L 79.162341,63.19298 89.687452,52.005488 81.77923,45.824615 l 8.529222,-11.148127 -23.974,3.914 5.03,-19.828 -13.429,9.659 -2.256,-27.69700049 -11.77,26.68000049 -13.843,-8.622 0.044,2.714 1.479,-0.025 -0.782,1.253 14.431,8.989 4.425651,33.312031 1.101524,-6.191968 L 66.503452,25.897488 52.211833,53.018583 81.778452,39.062488 51.706135,50.377012 82.970452,53.661488 53.957627,49.52798 84.696992,75.139599 49.716008,41.922044 64.793452,77.120488 47.221643,28.177076 48.8205,59.92806 l -5.516048,10.618428 -9.218,10.709 L 69.340563,41.495425 12.937452,66.688488 69.517928,47.283345 67.358086,43.800313 26.515452,46.480488 82.589832,49.499377 53.479198,34.77971 33.066452,21.446488 l -1.477,0.025 -0.782,1.253 0.782,-1.253 -1.479,0.025 0.25,14.961 -19.009397,-4.413238 10.491397,14.029238 -10.531,7.122 10.983,4.225 -12.3382861,9.598603 z"
       id="polygon24"
       inkscape:connector-curvature="0"
       sodipodi:nodetypes="cccccccccccccccccccccccccccccccccccccccccccccccccccccccc" /></g></svg>